<svg id="visual" viewBox="0 0 900 600" width="900" height="600" xmlns="http://www.w3.org/2000/svg" xmlns:xlink="http://www.w3.org/1999/xlink" version="1.1"><rect x="0" y="0" width="900" height="600" fill="#2c2b47"></rect><defs><linearGradient id="grad1_0" x1="33.3%" y1="0%" x2="100%" y2="100%"><stop offset="20%" stop-color="#2c2b47" stop-opacity="1"></stop><stop offset="80%" stop-color="#2c2b47" stop-opacity="1"></stop></linearGradient></defs><defs><linearGradient id="grad2_0" x1="0%" y1="0%" x2="66.7%" y2="100%"><stop offset="20%" stop-color="#2c2b47" stop-opacity="1"></stop><stop offset="80%" stop-color="#2c2b47" stop-opacity="1"></stop></linearGradient></defs><g transform="translate(900, 0)"><path d="M0 324.5C-47.9 325.4 -95.8 326.2 -124.2 299.8C-152.6 273.4 -161.5 219.6 -187.4 187.4C-213.3 155.1 -256.1 144.4 -281.8 116.7C-307.5 89.1 -316 44.5 -324.5 0L0 0Z" fill="#FBAE3C"></path></g><g transform="translate(0, 600)"><path d="M0 -324.5C31.5 -293.5 63.1 -262.6 104.1 -251.3C145.1 -240 195.6 -248.3 229.5 -229.5C263.4 -210.6 280.7 -164.5 293.8 -121.7C306.9 -78.9 315.7 -39.5 324.5 0L0 0Z" fill="#FBAE3C"></path></g></svg>